<svg width="18" height="17" viewBox="0 0 18 17" fill="none" xmlns="http://www.w3.org/2000/svg">
<path d="M13.4426 10.2255C13.2563 10.4004 13.1703 10.6587 13.214 10.9043L13.8511 14.3477C13.902 14.6416 13.7801 14.9349 13.5286 15.1036C13.2849 15.2785 12.9624 15.2995 12.6901 15.1595L9.51598 13.5428C9.4006 13.4869 9.27877 13.4512 9.15765 13.4512H8.96343C8.89177 13.4582 8.82798 13.4869 8.76993 13.5142L5.5951 15.1386C5.43743 15.2155 5.25827 15.2435 5.08627 15.2155C4.65627 15.1316 4.37748 14.7389 4.44843 14.326L5.08627 10.8826C5.12927 10.6314 5.04327 10.3794 4.85765 10.1975L2.26977 7.74792C2.05477 7.53796 1.97593 7.23632 2.07698 6.95707C2.17015 6.68342 2.4131 6.48046 2.7141 6.43217L6.27593 5.92756C6.54827 5.89957 6.78477 5.7393 6.9066 5.50134L8.4761 2.35893C8.51193 2.28894 8.5621 2.22525 8.62015 2.16996L8.68393 2.12097C8.7126 2.08528 8.7556 2.05798 8.79932 2.02999L8.87743 2.00199L8.99927 1.953H9.30098C9.57332 1.981 9.80982 2.14127 9.93165 2.37222L11.5219 5.50134C11.6366 5.7323 11.8588 5.88627 12.1168 5.92756L15.6786 6.43217C15.9796 6.47416 16.2311 6.67712 16.3308 6.95707C16.4239 7.23632 16.3451 7.54496 16.1229 7.74792L13.4426 10.2255Z" fill="#FFC936"/>
</svg>
